<svg width="520" height="520" viewBox="0 0 520 520" fill="none" xmlns="http://www.w3.org/2000/svg">
  <rect width="520" height="520" rx="22" fill="#F5F2EA"/>
  <text x="58" y="52" font-family="Avenir Next, Helvetica, Arial, sans-serif" font-size="16" font-weight="700" fill="#282521">Logseq task date picker</text>
  <rect x="58" y="68" width="404" height="44" rx="12" fill="#FFFFFF" stroke="#DED8CB"/>
  <text x="80" y="96" font-family="Avenir Next, Helvetica, Arial, sans-serif" font-size="16" fill="#2C2823">- TODO 디자인 시안 검토</text>

  <g filter="url(#shadow)">
    <rect x="64" y="126" width="392" height="358" rx="16" fill="#FFFFFF"/>
    <rect x="64.5" y="126.5" width="391" height="357" rx="15.5" stroke="#E2DDD4"/>
  </g>

  <text x="94" y="167" font-family="Avenir Next, Helvetica, Arial, sans-serif" font-size="24" font-weight="700" fill="#E95847">&lt;</text>
  <text x="260" y="167" text-anchor="middle" font-family="Avenir Next, Helvetica, Arial, sans-serif" font-size="24" font-weight="500" fill="#18171A">April 2026</text>
  <text x="426" y="167" text-anchor="middle" font-family="Avenir Next, Helvetica, Arial, sans-serif" font-size="24" font-weight="700" fill="#E95847">&gt;</text>

  <g font-family="Avenir Next, Helvetica, Arial, sans-serif" font-size="15" font-weight="600" fill="#262321">
    <text x="82" y="205">SUN</text>
    <text x="137" y="205">MON</text>
    <text x="191" y="205">TUE</text>
    <text x="243" y="205">WED</text>
    <text x="297" y="205">THU</text>
    <text x="356" y="205">FRI</text>
    <text x="404" y="205">SAT</text>
  </g>

  <g font-family="Avenir Next, Helvetica, Arial, sans-serif" font-size="24" font-weight="500" text-anchor="middle">
    <text x="100" y="242" fill="#9B9B9B">29</text>
    <text x="153" y="242" fill="#9B9B9B">30</text>
    <text x="206" y="242" fill="#9B9B9B">31</text>
    <text x="259" y="242" fill="#19181B">1</text>
    <text x="312" y="242" fill="#19181B">2</text>
    <text x="365" y="242" fill="#19181B">3</text>
    <text x="418" y="242" fill="#19181B">4</text>

    <text x="100" y="280" fill="#19181B">5</text>
    <text x="153" y="280" fill="#19181B">6</text>
    <text x="206" y="280" fill="#19181B">7</text>
    <text x="259" y="280" fill="#19181B">8</text>
    <text x="312" y="280" fill="#19181B">9</text>
    <text x="365" y="280" fill="#19181B">10</text>
    <text x="418" y="280" fill="#19181B">11</text>

    <text x="100" y="318" fill="#19181B">12</text>
    <text x="153" y="318" fill="#19181B">13</text>
    <text x="206" y="318" fill="#19181B">14</text>
    <text x="259" y="318" fill="#19181B">15</text>
    <text x="312" y="318" fill="#19181B">16</text>
    <text x="365" y="318" fill="#19181B">17</text>
    <text x="418" y="318" fill="#19181B">18</text>

    <text x="100" y="356" fill="#19181B">19</text>
    <text x="153" y="356" fill="#19181B">20</text>
    <text x="206" y="356" fill="#19181B">21</text>
    <text x="259" y="356" fill="#19181B">22</text>
    <text x="312" y="356" fill="#19181B">23</text>
    <text x="365" y="356" fill="#19181B">24</text>
    <rect x="397" y="326" width="42" height="42" rx="8" fill="#EA5B4B"/>
    <text x="418" y="356" fill="#FFFFFF">25</text>

    <text x="100" y="394" fill="#19181B">26</text>
    <text x="153" y="394" fill="#19181B">27</text>
    <text x="206" y="394" fill="#19181B">28</text>
    <text x="259" y="394" fill="#19181B">29</text>
    <text x="312" y="394" fill="#19181B">30</text>
    <text x="365" y="394" fill="#9B9B9B">1</text>
    <text x="418" y="394" fill="#9B9B9B">2</text>
  </g>

  <g font-family="Avenir Next, Helvetica, Arial, sans-serif" font-size="24" font-weight="500" text-anchor="middle">
    <rect x="169" y="426" width="94" height="34" rx="10" fill="#F7F4EE" stroke="#DED8CB"/>
    <text x="216" y="451" fill="#B1AAA1">--:--</text>
    <text x="276" y="450" fill="#A39B90">:</text>
    <rect x="290" y="426" width="62" height="34" rx="10" fill="#F7F4EE" stroke="#DED8CB"/>
  </g>

  <defs>
    <filter id="shadow" x="46" y="114" width="428" height="394" filterUnits="userSpaceOnUse" color-interpolation-filters="sRGB">
      <feFlood flood-opacity="0" result="BackgroundImageFix"/>
      <feColorMatrix in="SourceAlpha" type="matrix" values="0 0 0 0 0 0 0 0 0 0 0 0 0 0 0 0 0 0 127 0" result="hardAlpha"/>
      <feOffset dy="6"/>
      <feGaussianBlur stdDeviation="9"/>
      <feComposite in2="hardAlpha" operator="out"/>
      <feColorMatrix type="matrix" values="0 0 0 0 0.12 0 0 0 0 0.10 0 0 0 0 0.08 0 0 0 0.14 0"/>
      <feBlend mode="normal" in2="BackgroundImageFix" result="effect1_dropShadow"/>
      <feBlend mode="normal" in="SourceGraphic" in2="effect1_dropShadow" result="shape"/>
    </filter>
  </defs>
</svg>
